<mxfile host="app.diagrams.net" modified="2022-08-19T10:33:58.791Z" agent="5.0 (X11; Linux x86_64) AppleWebKit/537.36 (KHTML, like Gecko) Chrome/104.0.0.0 Safari/537.36" etag="gRcE8TSZrMQOiciVfWef" version="20.2.5" type="github">
  <diagram id="0yyiyOh7NrHnAMOzw_w6" name="Page-1">
    <mxGraphModel dx="1418" dy="1892" grid="1" gridSize="10" guides="1" tooltips="1" connect="1" arrows="1" fold="1" page="1" pageScale="1" pageWidth="850" pageHeight="1100" math="0" shadow="0">
      <root>
        <mxCell id="0" />
        <mxCell id="1" parent="0" />
        <mxCell id="PY4sBFLqDkRx8ysNLFZe-5" style="edgeStyle=orthogonalEdgeStyle;curved=1;rounded=0;orthogonalLoop=1;jettySize=auto;html=1;exitX=1;exitY=0;exitDx=0;exitDy=0;entryX=0;entryY=1;entryDx=0;entryDy=0;" edge="1" parent="1" source="PY4sBFLqDkRx8ysNLFZe-1" target="PY4sBFLqDkRx8ysNLFZe-4">
          <mxGeometry relative="1" as="geometry" />
        </mxCell>
        <mxCell id="PY4sBFLqDkRx8ysNLFZe-10" style="edgeStyle=orthogonalEdgeStyle;curved=1;rounded=0;orthogonalLoop=1;jettySize=auto;html=1;exitX=0;exitY=0;exitDx=0;exitDy=0;entryX=1;entryY=1;entryDx=0;entryDy=0;" edge="1" parent="1" source="PY4sBFLqDkRx8ysNLFZe-1" target="PY4sBFLqDkRx8ysNLFZe-9">
          <mxGeometry relative="1" as="geometry" />
        </mxCell>
        <mxCell id="PY4sBFLqDkRx8ysNLFZe-1" value="Программирование" style="rounded=0;whiteSpace=wrap;html=1;" vertex="1" parent="1">
          <mxGeometry x="250" y="360" width="120" height="60" as="geometry" />
        </mxCell>
        <mxCell id="PY4sBFLqDkRx8ysNLFZe-2" value="Генераторы синтаксических анализаторов" style="rounded=0;whiteSpace=wrap;html=1;" vertex="1" parent="1">
          <mxGeometry x="690" y="130" width="120" height="60" as="geometry" />
        </mxCell>
        <mxCell id="PY4sBFLqDkRx8ysNLFZe-6" style="edgeStyle=orthogonalEdgeStyle;curved=1;rounded=0;orthogonalLoop=1;jettySize=auto;html=1;exitX=1;exitY=0;exitDx=0;exitDy=0;entryX=0;entryY=1;entryDx=0;entryDy=0;" edge="1" parent="1" source="PY4sBFLqDkRx8ysNLFZe-4" target="PY4sBFLqDkRx8ysNLFZe-2">
          <mxGeometry relative="1" as="geometry" />
        </mxCell>
        <mxCell id="PY4sBFLqDkRx8ysNLFZe-8" style="edgeStyle=orthogonalEdgeStyle;curved=1;rounded=0;orthogonalLoop=1;jettySize=auto;html=1;exitX=0.5;exitY=0;exitDx=0;exitDy=0;" edge="1" parent="1" source="PY4sBFLqDkRx8ysNLFZe-4" target="PY4sBFLqDkRx8ysNLFZe-7">
          <mxGeometry relative="1" as="geometry" />
        </mxCell>
        <mxCell id="PY4sBFLqDkRx8ysNLFZe-4" value="Синтаксический анализ" style="rounded=0;whiteSpace=wrap;html=1;" vertex="1" parent="1">
          <mxGeometry x="470" y="250" width="120" height="60" as="geometry" />
        </mxCell>
        <mxCell id="PY4sBFLqDkRx8ysNLFZe-7" value="&lt;div style=&quot;direction: ltr; color: rgb(32, 33, 34); font-family: sans-serif; font-size: 14px; font-style: normal; font-variant-ligatures: normal; font-variant-caps: normal; font-weight: 400; letter-spacing: normal; orphans: 2; text-align: start; text-indent: 0px; text-transform: none; widows: 2; word-spacing: 0px; -webkit-text-stroke-width: 0px; background-color: rgb(255, 255, 255); text-decoration-thickness: initial; text-decoration-style: initial; text-decoration-color: initial; user-select: text !important;&quot; dir=&quot;ltr&quot; lang=&quot;ru&quot; class=&quot;mw-body-content mw-content-ltr&quot; id=&quot;mw-content-text&quot;&gt;&lt;div style=&quot;user-select: text !important;&quot; dir=&quot;ltr&quot; lang=&quot;ru&quot; class=&quot;mw-category-generated&quot;&gt;&lt;div style=&quot;user-select: text !important; clear: both;&quot; id=&quot;mw-pages&quot;&gt;&lt;p style=&quot;margin: 0.5em 0px; user-select: text !important; cursor: auto;&quot;&gt;Показаны 22 страницы из 22, находящихся в данной категории.&lt;/p&gt;&lt;div style=&quot;user-select: text !important; direction: ltr;&quot; class=&quot;mw-content-ltr&quot; dir=&quot;ltr&quot; lang=&quot;ru&quot;&gt;&lt;div style=&quot;user-select: text !important; columns: 24em 3;&quot; class=&quot;mw-category mw-category-columns&quot;&gt;&lt;div style=&quot;user-select: text !important;&quot; class=&quot;mw-category-group&quot;&gt;&lt;h3 style=&quot;color: rgb(0, 0, 0); margin: 0.3em 0px 0px; padding-top: 0.5em; padding-bottom: 0px; overflow: hidden; font-size: 1.2em; cursor: auto; user-select: text !important; line-height: 1.6; font-weight: bold;&quot;&gt;*&lt;/h3&gt;&lt;ul style=&quot;list-style-image: url(&amp;quot;/w/skins/Vector/resources/common/images/bullet-icon.svg?d4515&amp;quot;); margin: 0px 0px 0px 1.6em; padding: 0px;&quot;&gt;&lt;li style=&quot;margin-bottom: 0.1em; break-inside: avoid-column;&quot;&gt;&lt;a style=&quot;text-decoration: none; color: rgb(6, 69, 173); background: none; user-select: text !important;&quot; title=&quot;Синтаксический анализ&quot; href=&quot;https://ru.wikipedia.org/wiki/%D0%A1%D0%B8%D0%BD%D1%82%D0%B0%D0%BA%D1%81%D0%B8%D1%87%D0%B5%D1%81%D0%BA%D0%B8%D0%B9_%D0%B0%D0%BD%D0%B0%D0%BB%D0%B8%D0%B7&quot;&gt;Синтаксический анализ&lt;/a&gt;&lt;/li&gt;&lt;/ul&gt;&lt;/div&gt;&lt;div style=&quot;user-select: text !important;&quot; class=&quot;mw-category-group&quot;&gt;&lt;h3 style=&quot;color: rgb(0, 0, 0); margin: 0.3em 0px 0px; padding-top: 0.5em; padding-bottom: 0px; overflow: hidden; font-size: 1.2em; cursor: auto; user-select: text !important; line-height: 1.6; font-weight: bold;&quot;&gt;А&lt;/h3&gt;&lt;ul style=&quot;list-style-image: url(&amp;quot;/w/skins/Vector/resources/common/images/bullet-icon.svg?d4515&amp;quot;); margin: 0px 0px 0px 1.6em; padding: 0px;&quot;&gt;&lt;li style=&quot;margin-bottom: 0.1em; break-inside: avoid-column;&quot;&gt;&lt;a style=&quot;text-decoration: none; color: rgb(6, 69, 173); background: none; user-select: text !important;&quot; title=&quot;Алгоритм Кока — Янгера — Касами&quot; href=&quot;https://ru.wikipedia.org/wiki/%D0%90%D0%BB%D0%B3%D0%BE%D1%80%D0%B8%D1%82%D0%BC_%D0%9A%D0%BE%D0%BA%D0%B0_%E2%80%94_%D0%AF%D0%BD%D0%B3%D0%B5%D1%80%D0%B0_%E2%80%94_%D0%9A%D0%B0%D1%81%D0%B0%D0%BC%D0%B8&quot;&gt;Алгоритм Кока — Янгера — Касами&lt;/a&gt;&lt;/li&gt;&lt;li style=&quot;margin-bottom: 0.1em; break-inside: avoid-column;&quot;&gt;&lt;a style=&quot;text-decoration: none; color: rgb(6, 69, 173); background: none; user-select: text !important;&quot; title=&quot;Алгоритм Рутисхаузера&quot; href=&quot;https://ru.wikipedia.org/wiki/%D0%90%D0%BB%D0%B3%D0%BE%D1%80%D0%B8%D1%82%D0%BC_%D0%A0%D1%83%D1%82%D0%B8%D1%81%D1%85%D0%B0%D1%83%D0%B7%D0%B5%D1%80%D0%B0&quot;&gt;Алгоритм Рутисхаузера&lt;/a&gt;&lt;/li&gt;&lt;li style=&quot;margin-bottom: 0.1em; break-inside: avoid-column;&quot;&gt;&lt;a style=&quot;text-decoration: none; color: rgb(6, 69, 173); background: none; user-select: text !important;&quot; title=&quot;Алгоритм сортировочной станции&quot; href=&quot;https://ru.wikipedia.org/wiki/%D0%90%D0%BB%D0%B3%D0%BE%D1%80%D0%B8%D1%82%D0%BC_%D1%81%D0%BE%D1%80%D1%82%D0%B8%D1%80%D0%BE%D0%B2%D0%BE%D1%87%D0%BD%D0%BE%D0%B9_%D1%81%D1%82%D0%B0%D0%BD%D1%86%D0%B8%D0%B8&quot;&gt;Алгоритм сортировочной станции&lt;/a&gt;&lt;/li&gt;&lt;li style=&quot;margin-bottom: 0.1em; break-inside: avoid-column;&quot;&gt;&lt;a style=&quot;text-decoration: none; color: rgb(6, 69, 173); background: none; user-select: text !important;&quot; title=&quot;Алгоритм Эрли&quot; href=&quot;https://ru.wikipedia.org/wiki/%D0%90%D0%BB%D0%B3%D0%BE%D1%80%D0%B8%D1%82%D0%BC_%D0%AD%D1%80%D0%BB%D0%B8&quot;&gt;Алгоритм Эрли&lt;/a&gt;&lt;/li&gt;&lt;/ul&gt;&lt;/div&gt;&lt;div style=&quot;user-select: text !important;&quot; class=&quot;mw-category-group&quot;&gt;&lt;h3 style=&quot;color: rgb(0, 0, 0); margin: 0.3em 0px 0px; padding-top: 0.5em; padding-bottom: 0px; overflow: hidden; font-size: 1.2em; cursor: auto; user-select: text !important; line-height: 1.6; font-weight: bold;&quot;&gt;Д&lt;/h3&gt;&lt;ul style=&quot;list-style-image: url(&amp;quot;/w/skins/Vector/resources/common/images/bullet-icon.svg?d4515&amp;quot;); margin: 0px 0px 0px 1.6em; padding: 0px;&quot;&gt;&lt;li style=&quot;margin-bottom: 0.1em; break-inside: avoid-column;&quot;&gt;&lt;a style=&quot;text-decoration: none; color: rgb(6, 69, 173); background: none; user-select: text !important;&quot; title=&quot;Абстрактное синтаксическое дерево&quot; href=&quot;https://ru.wikipedia.org/wiki/%D0%90%D0%B1%D1%81%D1%82%D1%80%D0%B0%D0%BA%D1%82%D0%BD%D0%BE%D0%B5_%D1%81%D0%B8%D0%BD%D1%82%D0%B0%D0%BA%D1%81%D0%B8%D1%87%D0%B5%D1%81%D0%BA%D0%BE%D0%B5_%D0%B4%D0%B5%D1%80%D0%B5%D0%B2%D0%BE&quot;&gt;Абстрактное синтаксическое дерево&lt;/a&gt;&lt;/li&gt;&lt;/ul&gt;&lt;/div&gt;&lt;div style=&quot;user-select: text !important;&quot; class=&quot;mw-category-group&quot;&gt;&lt;h3 style=&quot;color: rgb(0, 0, 0); margin: 0.3em 0px 0px; padding-top: 0.5em; padding-bottom: 0px; overflow: hidden; font-size: 1.2em; cursor: auto; user-select: text !important; line-height: 1.6; font-weight: bold;&quot;&gt;М&lt;/h3&gt;&lt;ul style=&quot;list-style-image: url(&amp;quot;/w/skins/Vector/resources/common/images/bullet-icon.svg?d4515&amp;quot;); margin: 0px 0px 0px 1.6em; padding: 0px;&quot;&gt;&lt;li style=&quot;margin-bottom: 0.1em; break-inside: avoid-column;&quot;&gt;&lt;a style=&quot;text-decoration: none; color: rgb(6, 69, 173); background: none; user-select: text !important;&quot; title=&quot;Метод рекурсивного спуска&quot; href=&quot;https://ru.wikipedia.org/wiki/%D0%9C%D0%B5%D1%82%D0%BE%D0%B4_%D1%80%D0%B5%D0%BA%D1%83%D1%80%D1%81%D0%B8%D0%B2%D0%BD%D0%BE%D0%B3%D0%BE_%D1%81%D0%BF%D1%83%D1%81%D0%BA%D0%B0&quot;&gt;Метод рекурсивного спуска&lt;/a&gt;&lt;/li&gt;&lt;/ul&gt;&lt;/div&gt;&lt;div style=&quot;user-select: text !important;&quot; class=&quot;mw-category-group&quot;&gt;&lt;h3 style=&quot;color: rgb(0, 0, 0); margin: 0.3em 0px 0px; padding-top: 0.5em; padding-bottom: 0px; overflow: hidden; font-size: 1.2em; cursor: auto; user-select: text !important; line-height: 1.6; font-weight: bold;&quot;&gt;Н&lt;/h3&gt;&lt;ul style=&quot;list-style-image: url(&amp;quot;/w/skins/Vector/resources/common/images/bullet-icon.svg?d4515&amp;quot;); margin: 0px 0px 0px 1.6em; padding: 0px;&quot;&gt;&lt;li style=&quot;margin-bottom: 0.1em; break-inside: avoid-column;&quot;&gt;&lt;a style=&quot;text-decoration: none; color: rgb(6, 69, 173); background: none; user-select: text !important;&quot; title=&quot;Нисходящий синтаксический анализ&quot; href=&quot;https://ru.wikipedia.org/wiki/%D0%9D%D0%B8%D1%81%D1%85%D0%BE%D0%B4%D1%8F%D1%89%D0%B8%D0%B9_%D1%81%D0%B8%D0%BD%D1%82%D0%B0%D0%BA%D1%81%D0%B8%D1%87%D0%B5%D1%81%D0%BA%D0%B8%D0%B9_%D0%B0%D0%BD%D0%B0%D0%BB%D0%B8%D0%B7&quot;&gt;Нисходящий синтаксический анализ&lt;/a&gt;&lt;/li&gt;&lt;/ul&gt;&lt;/div&gt;&lt;div style=&quot;user-select: text !important;&quot; class=&quot;mw-category-group&quot;&gt;&lt;h3 style=&quot;color: rgb(0, 0, 0); margin: 0.3em 0px 0px; padding-top: 0.5em; padding-bottom: 0px; overflow: hidden; font-size: 1.2em; cursor: auto; user-select: text !important; line-height: 1.6; font-weight: bold;&quot;&gt;С&lt;/h3&gt;&lt;ul style=&quot;list-style-image: url(&amp;quot;/w/skins/Vector/resources/common/images/bullet-icon.svg?d4515&amp;quot;); margin: 0px 0px 0px 1.6em; padding: 0px;&quot;&gt;&lt;li style=&quot;margin-bottom: 0.1em; break-inside: avoid-column;&quot;&gt;&lt;a style=&quot;text-decoration: none; color: rgb(6, 69, 173); background: none; user-select: text !important;&quot; title=&quot;Синтаксическая омонимия&quot; href=&quot;https://ru.wikipedia.org/wiki/%D0%A1%D0%B8%D0%BD%D1%82%D0%B0%D0%BA%D1%81%D0%B8%D1%87%D0%B5%D1%81%D0%BA%D0%B0%D1%8F_%D0%BE%D0%BC%D0%BE%D0%BD%D0%B8%D0%BC%D0%B8%D1%8F&quot;&gt;Синтаксическая омонимия&lt;/a&gt;&lt;/li&gt;&lt;li style=&quot;margin-bottom: 0.1em; break-inside: avoid-column;&quot;&gt;&lt;a style=&quot;text-decoration: none; color: rgb(6, 69, 173); background: none; user-select: text !important;&quot; title=&quot;Синтаксическая ошибка&quot; href=&quot;https://ru.wikipedia.org/wiki/%D0%A1%D0%B8%D0%BD%D1%82%D0%B0%D0%BA%D1%81%D0%B8%D1%87%D0%B5%D1%81%D0%BA%D0%B0%D1%8F_%D0%BE%D1%88%D0%B8%D0%B1%D0%BA%D0%B0&quot;&gt;Синтаксическая ошибка&lt;/a&gt;&lt;/li&gt;&lt;li style=&quot;margin-bottom: 0.1em; break-inside: avoid-column;&quot;&gt;&lt;a style=&quot;text-decoration: none; color: rgb(6, 69, 173); background: none; user-select: text !important;&quot; title=&quot;Синтаксическая ошибка (программирование)&quot; href=&quot;https://ru.wikipedia.org/wiki/%D0%A1%D0%B8%D0%BD%D1%82%D0%B0%D0%BA%D1%81%D0%B8%D1%87%D0%B5%D1%81%D0%BA%D0%B0%D1%8F_%D0%BE%D1%88%D0%B8%D0%B1%D0%BA%D0%B0_(%D0%BF%D1%80%D0%BE%D0%B3%D1%80%D0%B0%D0%BC%D0%BC%D0%B8%D1%80%D0%BE%D0%B2%D0%B0%D0%BD%D0%B8%D0%B5)&quot;&gt;Синтаксическая ошибка (программирование)&lt;/a&gt;&lt;/li&gt;&lt;li style=&quot;margin-bottom: 0.1em; break-inside: avoid-column;&quot;&gt;&lt;a style=&quot;text-decoration: none; color: rgb(6, 69, 173); background: none; user-select: text !important;&quot; title=&quot;Синтаксически управляемая трансляция&quot; href=&quot;https://ru.wikipedia.org/wiki/%D0%A1%D0%B8%D0%BD%D1%82%D0%B0%D0%BA%D1%81%D0%B8%D1%87%D0%B5%D1%81%D0%BA%D0%B8_%D1%83%D0%BF%D1%80%D0%B0%D0%B2%D0%BB%D1%8F%D0%B5%D0%BC%D0%B0%D1%8F_%D1%82%D1%80%D0%B0%D0%BD%D1%81%D0%BB%D1%8F%D1%86%D0%B8%D1%8F&quot;&gt;Синтаксически управляемая трансляция&lt;/a&gt;&lt;/li&gt;&lt;li style=&quot;margin-bottom: 0.1em; break-inside: avoid-column;&quot;&gt;&lt;a style=&quot;text-decoration: none; color: rgb(6, 69, 173); background: none; user-select: text !important;&quot; title=&quot;Синтаксический анализатор&quot; href=&quot;https://ru.wikipedia.org/wiki/%D0%A1%D0%B8%D0%BD%D1%82%D0%B0%D0%BA%D1%81%D0%B8%D1%87%D0%B5%D1%81%D0%BA%D0%B8%D0%B9_%D0%B0%D0%BD%D0%B0%D0%BB%D0%B8%D0%B7%D0%B0%D1%82%D0%BE%D1%80&quot;&gt;Синтаксический анализатор&lt;/a&gt;&lt;/li&gt;&lt;li style=&quot;margin-bottom: 0.1em; break-inside: avoid-column;&quot;&gt;&lt;a style=&quot;text-decoration: none; color: rgb(6, 69, 173); background: none; user-select: text !important;&quot; title=&quot;Сравнительная иллюзия&quot; href=&quot;https://ru.wikipedia.org/wiki/%D0%A1%D1%80%D0%B0%D0%B2%D0%BD%D0%B8%D1%82%D0%B5%D0%BB%D1%8C%D0%BD%D0%B0%D1%8F_%D0%B8%D0%BB%D0%BB%D1%8E%D0%B7%D0%B8%D1%8F&quot;&gt;Сравнительная иллюзия&lt;/a&gt;&lt;/li&gt;&lt;/ul&gt;&lt;/div&gt;&lt;div style=&quot;user-select: text !important;&quot; class=&quot;mw-category-group&quot;&gt;&lt;h3 style=&quot;color: rgb(0, 0, 0); margin: 0.3em 0px 0px; padding-top: 0.5em; padding-bottom: 0px; overflow: hidden; font-size: 1.2em; cursor: auto; user-select: text !important; line-height: 1.6; font-weight: bold;&quot;&gt;G&lt;/h3&gt;&lt;ul style=&quot;list-style-image: url(&amp;quot;/w/skins/Vector/resources/common/images/bullet-icon.svg?d4515&amp;quot;); margin: 0px 0px 0px 1.6em; padding: 0px;&quot;&gt;&lt;li style=&quot;margin-bottom: 0.1em; break-inside: avoid-column;&quot;&gt;&lt;a style=&quot;text-decoration: none; color: rgb(6, 69, 173); background: none; user-select: text !important;&quot; title=&quot;GLR-парсер&quot; href=&quot;https://ru.wikipedia.org/wiki/GLR-%D0%BF%D0%B0%D1%80%D1%81%D0%B5%D1%80&quot;&gt;GLR-парсер&lt;/a&gt;&lt;/li&gt;&lt;/ul&gt;&lt;/div&gt;&lt;div style=&quot;user-select: text !important;&quot; class=&quot;mw-category-group&quot;&gt;&lt;h3 style=&quot;color: rgb(0, 0, 0); margin: 0.3em 0px 0px; padding-top: 0.5em; padding-bottom: 0px; overflow: hidden; font-size: 1.2em; cursor: auto; user-select: text !important; line-height: 1.6; font-weight: bold;&quot;&gt;L&lt;/h3&gt;&lt;ul style=&quot;list-style-image: url(&amp;quot;/w/skins/Vector/resources/common/images/bullet-icon.svg?d4515&amp;quot;); margin: 0px 0px 0px 1.6em; padding: 0px;&quot;&gt;&lt;li style=&quot;margin-bottom: 0.1em; break-inside: avoid-column;&quot;&gt;&lt;a style=&quot;text-decoration: none; color: rgb(6, 69, 173); background: none; user-select: text !important;&quot; title=&quot;LALR(1)&quot; href=&quot;https://ru.wikipedia.org/wiki/LALR(1)&quot;&gt;LALR(1)&lt;/a&gt;&lt;/li&gt;&lt;li style=&quot;margin-bottom: 0.1em; break-inside: avoid-column;&quot;&gt;&lt;a style=&quot;text-decoration: none; color: rgb(6, 69, 173); background: none; user-select: text !important;&quot; title=&quot;LL-анализатор&quot; href=&quot;https://ru.wikipedia.org/wiki/LL-%D0%B0%D0%BD%D0%B0%D0%BB%D0%B8%D0%B7%D0%B0%D1%82%D0%BE%D1%80&quot;&gt;LL-анализатор&lt;/a&gt;&lt;/li&gt;&lt;li style=&quot;margin-bottom: 0.1em; break-inside: avoid-column;&quot;&gt;&lt;a style=&quot;text-decoration: none; color: rgb(6, 69, 173); background: none; user-select: text !important;&quot; title=&quot;LL(1)&quot; href=&quot;https://ru.wikipedia.org/wiki/LL(1)&quot;&gt;LL(1)&lt;/a&gt;&lt;/li&gt;&lt;li style=&quot;margin-bottom: 0.1em; break-inside: avoid-column;&quot;&gt;&lt;a style=&quot;text-decoration: none; color: rgb(6, 69, 173); background: none; user-select: text !important;&quot; title=&quot;LR-анализатор&quot; href=&quot;https://ru.wikipedia.org/wiki/LR-%D0%B0%D0%BD%D0%B0%D0%BB%D0%B8%D0%B7%D0%B0%D1%82%D0%BE%D1%80&quot;&gt;LR-анализатор&lt;/a&gt;&lt;/li&gt;&lt;li style=&quot;margin-bottom: 0.1em; break-inside: avoid-column;&quot;&gt;&lt;a style=&quot;text-decoration: none; color: rgb(6, 69, 173); background: none; user-select: text !important;&quot; title=&quot;LR(0)&quot; href=&quot;https://ru.wikipedia.org/wiki/LR(0)&quot;&gt;LR(0)&lt;/a&gt;&lt;/li&gt;&lt;/ul&gt;&lt;/div&gt;&lt;div style=&quot;user-select: text !important;&quot; class=&quot;mw-category-group&quot;&gt;&lt;h3 style=&quot;color: rgb(0, 0, 0); margin: 0.3em 0px 0px; padding-top: 0.5em; padding-bottom: 0px; overflow: hidden; font-size: 1.2em; cursor: auto; user-select: text !important; line-height: 1.6; font-weight: bold;&quot;&gt;P&lt;/h3&gt;&lt;ul style=&quot;list-style-image: url(&amp;quot;/w/skins/Vector/resources/common/images/bullet-icon.svg?d4515&amp;quot;); margin: 0px 0px 0px 1.6em; padding: 0px;&quot;&gt;&lt;li style=&quot;margin-bottom: 0.1em; break-inside: avoid-column;&quot;&gt;&lt;a style=&quot;text-decoration: none; color: rgb(6, 69, 173); background: none; user-select: text !important;&quot; title=&quot;PostCSS&quot; href=&quot;https://ru.wikipedia.org/wiki/PostCSS&quot;&gt;PostCSS&lt;/a&gt;&lt;/li&gt;&lt;/ul&gt;&lt;/div&gt;&lt;div style=&quot;user-select: text !important;&quot; class=&quot;mw-category-group&quot;&gt;&lt;h3 style=&quot;color: rgb(0, 0, 0); margin: 0.3em 0px 0px; padding-top: 0.5em; padding-bottom: 0px; overflow: hidden; font-size: 1.2em; cursor: auto; user-select: text !important; line-height: 1.6; font-weight: bold;&quot;&gt;S&lt;/h3&gt;&lt;ul style=&quot;list-style-image: url(&amp;quot;/w/skins/Vector/resources/common/images/bullet-icon.svg?d4515&amp;quot;); margin: 0px 0px 0px 1.6em; padding: 0px;&quot;&gt;&lt;li style=&quot;margin-bottom: 0.1em; break-inside: avoid-column;&quot;&gt;&lt;a style=&quot;text-decoration: none; color: rgb(6, 69, 173); background: none; user-select: text !important;&quot; title=&quot;SLR(1)&quot; href=&quot;https://ru.wikipedia.org/wiki/SLR(1)&quot;&gt;SLR(1)&lt;/a&gt;&lt;/li&gt;&lt;/ul&gt;&lt;/div&gt;&lt;/div&gt;&lt;/div&gt;&lt;/div&gt;&lt;/div&gt;&lt;/div&gt;" style="text;whiteSpace=wrap;html=1;" vertex="1" parent="1">
          <mxGeometry x="220" y="-930" width="560" height="840" as="geometry" />
        </mxCell>
        <mxCell id="PY4sBFLqDkRx8ysNLFZe-9" value="Базы данных" style="rounded=0;whiteSpace=wrap;html=1;" vertex="1" parent="1">
          <mxGeometry x="50" y="250" width="120" height="60" as="geometry" />
        </mxCell>
      </root>
    </mxGraphModel>
  </diagram>
</mxfile>
